<mxfile host="app.diagrams.net" modified="2024-02-06T22:30:28.759Z" agent="Mozilla/5.0 (Macintosh; Intel Mac OS X 10_15_7) AppleWebKit/537.36 (KHTML, like Gecko) Chrome/120.0.0.0 Safari/537.36" etag="9pI1YDnAgIJ-fDwKg9LX" version="22.1.21" type="github">
  <diagram name="Page-1" id="Arq-Kt6yXAZYzlD25esC">
    <mxGraphModel dx="1949" dy="952" grid="1" gridSize="10" guides="1" tooltips="1" connect="1" arrows="1" fold="1" page="1" pageScale="1" pageWidth="827" pageHeight="1169" background="#ffffff" math="0" shadow="1">
      <root>
        <mxCell id="0" />
        <mxCell id="1" parent="0" />
        <mxCell id="aTD11fkSg5GpzUgMcPLQ-7" value="Data Flow Diagram of DIM_stores dimension" style="text;html=1;strokeColor=none;fillColor=#808080;align=center;verticalAlign=middle;whiteSpace=wrap;overflow=hidden;dashed=1;fontSize=36;fontColor=#FFFFFF;fontFamily=Helvetica;fontStyle=1" vertex="1" parent="1">
          <mxGeometry x="36.25" y="130" width="1163.75" height="50" as="geometry" />
        </mxCell>
        <mxCell id="aTD11fkSg5GpzUgMcPLQ-123" style="edgeStyle=orthogonalEdgeStyle;rounded=0;orthogonalLoop=1;jettySize=auto;html=1;exitX=0.75;exitY=1;exitDx=0;exitDy=0;entryX=0;entryY=0.5;entryDx=0;entryDy=0;" edge="1" parent="1" source="aTD11fkSg5GpzUgMcPLQ-8" target="aTD11fkSg5GpzUgMcPLQ-122">
          <mxGeometry relative="1" as="geometry" />
        </mxCell>
        <mxCell id="aTD11fkSg5GpzUgMcPLQ-8" value="" style="rounded=1;whiteSpace=wrap;html=1;dashed=1;strokeColor=none;strokeWidth=2;fillColor=#FFFFFF;fontFamily=Helvetica;fontSize=14;fontColor=#FFB366;opacity=75;verticalAlign=top;fontStyle=1" vertex="1" parent="1">
          <mxGeometry x="790" y="323.08000000000004" width="185" height="479" as="geometry" />
        </mxCell>
        <mxCell id="aTD11fkSg5GpzUgMcPLQ-90" style="edgeStyle=orthogonalEdgeStyle;rounded=0;orthogonalLoop=1;jettySize=auto;html=1;entryX=0;entryY=0.75;entryDx=0;entryDy=0;" edge="1" parent="1" source="aTD11fkSg5GpzUgMcPLQ-9" target="aTD11fkSg5GpzUgMcPLQ-82">
          <mxGeometry relative="1" as="geometry" />
        </mxCell>
        <mxCell id="aTD11fkSg5GpzUgMcPLQ-9" value="" style="rounded=1;whiteSpace=wrap;html=1;dashed=1;strokeColor=none;strokeWidth=2;fillColor=#FFFFFF;fontFamily=Helvetica;fontSize=14;fontColor=#FFB366;opacity=75;verticalAlign=top;fontStyle=1" vertex="1" parent="1">
          <mxGeometry x="30" y="320" width="216.25" height="480" as="geometry" />
        </mxCell>
        <mxCell id="aTD11fkSg5GpzUgMcPLQ-113" style="edgeStyle=orthogonalEdgeStyle;rounded=0;orthogonalLoop=1;jettySize=auto;html=1;exitX=0.75;exitY=1;exitDx=0;exitDy=0;entryX=0;entryY=0.75;entryDx=0;entryDy=0;" edge="1" parent="1" source="aTD11fkSg5GpzUgMcPLQ-12" target="aTD11fkSg5GpzUgMcPLQ-47">
          <mxGeometry relative="1" as="geometry" />
        </mxCell>
        <mxCell id="aTD11fkSg5GpzUgMcPLQ-12" value="" style="rounded=1;whiteSpace=wrap;html=1;dashed=1;strokeColor=none;strokeWidth=2;fillColor=#FFFFFF;fontFamily=Helvetica;fontSize=14;fontColor=#FFB366;opacity=75;verticalAlign=top;fontStyle=1" vertex="1" parent="1">
          <mxGeometry x="556.25" y="323.08000000000004" width="210" height="476.92" as="geometry" />
        </mxCell>
        <mxCell id="aTD11fkSg5GpzUgMcPLQ-13" value="&lt;font style=&quot;font-size: 24px;&quot;&gt;METADATA&lt;/font&gt;" style="rounded=1;whiteSpace=wrap;html=1;dashed=1;strokeColor=none;strokeWidth=2;fillColor=#7EA6E0;fontFamily=Helvetica;fontSize=14;fontColor=#FFB366;opacity=75;verticalAlign=top;fontStyle=1" vertex="1" parent="1">
          <mxGeometry x="46.75" y="1010" width="1170" height="50" as="geometry" />
        </mxCell>
        <mxCell id="aTD11fkSg5GpzUgMcPLQ-105" style="edgeStyle=orthogonalEdgeStyle;rounded=0;orthogonalLoop=1;jettySize=auto;html=1;exitX=0.621;exitY=1;exitDx=0;exitDy=0;entryX=0;entryY=0.5;entryDx=0;entryDy=0;exitPerimeter=0;" edge="1" parent="1" source="aTD11fkSg5GpzUgMcPLQ-14" target="aTD11fkSg5GpzUgMcPLQ-103">
          <mxGeometry relative="1" as="geometry">
            <Array as="points">
              <mxPoint x="446.25" y="885" />
            </Array>
          </mxGeometry>
        </mxCell>
        <mxCell id="aTD11fkSg5GpzUgMcPLQ-109" style="edgeStyle=orthogonalEdgeStyle;rounded=0;orthogonalLoop=1;jettySize=auto;html=1;exitX=0.5;exitY=0;exitDx=0;exitDy=0;entryX=0;entryY=0.5;entryDx=0;entryDy=0;" edge="1" parent="1" source="aTD11fkSg5GpzUgMcPLQ-14" target="aTD11fkSg5GpzUgMcPLQ-108">
          <mxGeometry relative="1" as="geometry" />
        </mxCell>
        <mxCell id="aTD11fkSg5GpzUgMcPLQ-14" value="" style="rounded=1;whiteSpace=wrap;html=1;dashed=1;strokeColor=none;strokeWidth=2;fillColor=#FFFFFF;fontFamily=Helvetica;fontSize=14;fontColor=#FFB366;opacity=75;verticalAlign=top;fontStyle=1" vertex="1" parent="1">
          <mxGeometry x="316.25" y="320" width="210" height="480" as="geometry" />
        </mxCell>
        <mxCell id="aTD11fkSg5GpzUgMcPLQ-31" value="&lt;span style=&quot;color: rgb(0, 76, 153); font-family: Helvetica; font-style: normal; font-variant-ligatures: normal; font-variant-caps: normal; letter-spacing: normal; orphans: 2; text-align: center; text-indent: 0px; text-transform: none; widows: 2; word-spacing: 0px; -webkit-text-stroke-width: 0px; background-color: rgb(251, 251, 251); text-decoration-thickness: initial; text-decoration-style: initial; text-decoration-color: initial; float: none; display: inline !important;&quot;&gt;&lt;font style=&quot;font-size: 18px;&quot;&gt;&lt;b&gt;Data Source&lt;/b&gt;&lt;/font&gt;&lt;/span&gt;" style="text;whiteSpace=wrap;html=1;" vertex="1" parent="1">
          <mxGeometry x="84.38" y="345" width="107.5" height="32" as="geometry" />
        </mxCell>
        <mxCell id="aTD11fkSg5GpzUgMcPLQ-46" value="&lt;font style=&quot;font-size: 18px;&quot;&gt;&lt;b&gt;SA_stores&lt;/b&gt;&lt;/font&gt;" style="rounded=1;whiteSpace=wrap;html=1;strokeColor=#CCCCCC;fillColor=#E6E6E6;" vertex="1" parent="1">
          <mxGeometry x="354" y="390" width="134.5" height="50" as="geometry" />
        </mxCell>
        <mxCell id="aTD11fkSg5GpzUgMcPLQ-47" value="&lt;font style=&quot;font-size: 18px;&quot;&gt;Loading data to BL_3NF Layer, generation of surrogate keys&lt;/font&gt;" style="rounded=1;whiteSpace=wrap;html=1;strokeColor=#CCCCCC;" vertex="1" parent="1">
          <mxGeometry x="757.38" y="823.08" width="112.62" height="136.92" as="geometry" />
        </mxCell>
        <mxCell id="aTD11fkSg5GpzUgMcPLQ-51" value="" style="rounded=1;whiteSpace=wrap;html=1;dashed=1;strokeColor=none;strokeWidth=2;fillColor=#FFFFFF;fontFamily=Helvetica;fontSize=14;fontColor=#FFB366;opacity=75;verticalAlign=top;fontStyle=1" vertex="1" parent="1">
          <mxGeometry x="1016.25" y="320" width="170" height="480" as="geometry" />
        </mxCell>
        <mxCell id="aTD11fkSg5GpzUgMcPLQ-43" value="" style="shape=image;verticalLabelPosition=bottom;labelBackgroundColor=#ffffff;verticalAlign=top;aspect=fixed;imageAspect=0;image=data:image/svg+xml,PHN2ZyB4bWxuczpjYz0iaHR0cDovL2NyZWF0aXZlY29tbW9ucy5vcmcvbnMjIiB4bWxuczpkYz0iaHR0cDovL3B1cmwub3JnL2RjL2VsZW1lbnRzLzEuMS8iIHhtbG5zOmlua3NjYXBlPSJodHRwOi8vd3d3Lmlua3NjYXBlLm9yZy9uYW1lc3BhY2VzL2lua3NjYXBlIiB4bWxuczpyZGY9Imh0dHA6Ly93d3cudzMub3JnLzE5OTkvMDIvMjItcmRmLXN5bnRheC1ucyMiIHhtbG5zOnNvZGlwb2RpPSJodHRwOi8vc29kaXBvZGkuc291cmNlZm9yZ2UubmV0L0RURC9zb2RpcG9kaS0wLmR0ZCIgeG1sbnM6c3ZnPSJodHRwOi8vd3d3LnczLm9yZy8yMDAwL3N2ZyIgeG1sbnM9Imh0dHA6Ly93d3cudzMub3JnLzIwMDAvc3ZnIiB4bWxuczp4bGluaz0iaHR0cDovL3d3dy53My5vcmcvMTk5OS94bGluayIgdmVyc2lvbj0iMS4xIiBpZD0ic3ZnOTkwNTgiIGlua3NjYXBlOnZlcnNpb249IjAuOTIuMyAoMjQwNTU0NiwgMjAxOC0wMy0xMSkiIHNvZGlwb2RpOmRvY25hbWU9ImRhdGFiYXNlcy5zdmciIHg9IjBweCIgeT0iMHB4IiB2aWV3Qm94PSIwIDAgNTIuODggNjUuODciIHN0eWxlPSJlbmFibGUtYmFja2dyb3VuZDpuZXcgMCAwIDUyLjg4IDY1Ljg3OyIgeG1sOnNwYWNlPSJwcmVzZXJ2ZSI+JiN4YTs8c29kaXBvZGk6bmFtZWR2aWV3IGJvcmRlcmNvbG9yPSIjNjY2NjY2IiBib3JkZXJvcGFjaXR5PSIxIiBmaXQtbWFyZ2luLWJvdHRvbT0iMCIgZml0LW1hcmdpbi1sZWZ0PSIwIiBmaXQtbWFyZ2luLXJpZ2h0PSIwIiBmaXQtbWFyZ2luLXRvcD0iMCIgZ3JpZHRvbGVyYW5jZT0iMTAiIGd1aWRldG9sZXJhbmNlPSIxMCIgaWQ9Im5hbWVkdmlldzk5MDYwIiBpbmtzY2FwZTpjdXJyZW50LWxheWVyPSJzdmc5OTA1OCIgaW5rc2NhcGU6Y3g9IjM1LjI1IiBpbmtzY2FwZTpjeT0iNDMuOTE1OCIgaW5rc2NhcGU6cGFnZW9wYWNpdHk9IjAiIGlua3NjYXBlOnBhZ2VzaGFkb3c9IjIiIGlua3NjYXBlOndpbmRvdy1oZWlnaHQ9IjEwMTciIGlua3NjYXBlOndpbmRvdy1tYXhpbWl6ZWQ9IjEiIGlua3NjYXBlOndpbmRvdy13aWR0aD0iMTkyMCIgaW5rc2NhcGU6d2luZG93LXg9Ii04IiBpbmtzY2FwZTp3aW5kb3cteT0iLTgiIGlua3NjYXBlOnpvb209IjkuODcyMjY4NSIgb2JqZWN0dG9sZXJhbmNlPSIxMCIgcGFnZWNvbG9yPSIjZmZmZmZmIiBzaG93Z3JpZD0iZmFsc2UiPiYjeGE7CTwvc29kaXBvZGk6bmFtZWR2aWV3PiYjeGE7PGcgaWQ9Imc5OTA1NiIgdHJhbnNmb3JtPSJ0cmFuc2xhdGUoMCwtMC4wMDMyKSI+JiN4YTsJPHRpdGxlIGlkPSJ0aXRsZTk5MDQxIj5QYWdlLTE8L3RpdGxlPiYjeGE7CTxnIGlkPSJncm91cDM1MTAtMSI+JiN4YTsJCTx0aXRsZSBpZD0idGl0bGU5OTA0MyI+RGF0YWJhc2VzPC90aXRsZT4mI3hhOwkJPGcgaWQ9InNoYXBlMzUxMS0yIiB0cmFuc2Zvcm09InRyYW5zbGF0ZSgxLjAyNDcxLC01Ni40NTY4KSI+JiN4YTsJCQk8dGl0bGUgaWQ9InRpdGxlOTkwNDUiPlNoZWV0LjM1MTE8L3RpdGxlPiYjeGE7CQkJPHBhdGggaWQ9InBhdGg5OTA0NyIgaW5rc2NhcGU6Y29ubmVjdG9yLWN1cnZhdHVyZT0iMCIgc3R5bGU9ImZpbGw6IzNGNTc2NTsiIGQ9Ik0wLDYxLjE2YzAtMi41OSwxMS40My00LjcsMjUuNTItNC43ICAgICBjMTQuMSwwLDI1LjUxLDIuMTEsMjUuNTEsNC43YzAsMi42MS0xMS40MSw0LjcxLTI1LjUxLDQuNzFDMTEuNDMsNjUuODcsMCw2My43NywwLDYxLjE2eiIvPiYjeGE7CQk8L2c+JiN4YTsJCTxnIGlkPSJzaGFwZTM1MTItNCI+JiN4YTsJCQk8dGl0bGUgaWQ9InRpdGxlOTkwNTAiPlNoZWV0LjM1MTI8L3RpdGxlPiYjeGE7CQkJPHBhdGggaWQ9InBhdGg5OTA1MiIgaW5rc2NhcGU6Y29ubmVjdG9yLWN1cnZhdHVyZT0iMCIgc3R5bGU9ImZpbGw6IzNGNTc2NTsiIGQ9Ik01Mi44OCwyMC42NWMwLTE0LjMxLDAtMTQuMzEsMC0xNC4zMSAgICAgYy0zLjUzLDMuMjktMTYuOTYsNC41Ny0yNi40NCw0LjU3Yy05LjQ3LDAtMjIuOS0xLjI4LTI2LjQ0LTQuNTdjMCwxNC4zMSwwLDE0LjMxLDAsMTQuMzFjMCwwLjY0LDAuNTUsMS4yNiwxLjY1LDEuOSAgICAgQzAuNTUsMjMuMDgsMCwyMy43MiwwLDI0LjM1YzAsMTYuMSwwLDE2LjEsMCwxNi4xYzAsMC43NCwwLjU1LDEuMzgsMS42NSwxLjkxQzAuNTUsNDIuOTksMCw0My41MiwwLDQ0LjI2ICAgICBjMCwxNi4xMSwwLDE2LjExLDAsMTYuMTFjMCwyLjk2LDExLjksNS41LDI2LjQ0LDUuNWMxNC42NSwwLDI2LjQ0LTIuNTQsMjYuNDQtNS41YzAtMTYuMTEsMC0xNi4xMSwwLTE2LjExICAgICBjMC0wLjc0LTAuNTYtMS4yNy0xLjU0LTEuOWMwLjk4LTAuNTMsMS41NC0xLjE3LDEuNTQtMS45MWMwLTE2LjEsMC0xNi4xLDAtMTYuMWMwLTAuNjMtMC41Ni0xLjI3LTEuNTQtMS44ICAgICBDNTIuMzIsMjEuOTEsNTIuODgsMjEuMjksNTIuODgsMjAuNjV6IE01MC40NSw0My42M2MwLDEuNjktMTAuNjgsMi45Ny0yNC4wMSwyLjk3Yy0xMy4yMiwwLTIzLjktMS4yOC0yMy45LTIuOTcgICAgIGMwLTIuMDIsMC0yLjAyLDAtMi4wMmMwLDEuNywxMC42OCwyLjk3LDIzLjksMi45N2MxMy4zMywwLDI0LjAxLTEuMjcsMjQuMDEtMi45N1Y0My42M3ogTTUwLjQ1LDIzLjkzICAgICBjMCwxLjY5LTEwLjY4LDMuMDctMjQuMDEsMy4wN2MtMTMuMjIsMC0yMy45LTEuMzgtMjMuOS0zLjA3YzAtMi4wMiwwLTIuMDIsMC0yLjAyYzAsMS43LDEwLjY4LDMuMDgsMjMuOSwzLjA4ICAgICBjMTMuMzMsMCwyNC4wMS0xLjM4LDI0LjAxLTMuMDhMNTAuNDUsMjMuOTN6Ii8+JiN4YTsJCTwvZz4mI3hhOwk8L2c+JiN4YTs8L2c+JiN4YTs8L3N2Zz4=;" vertex="1" parent="1">
          <mxGeometry x="111.63" y="395.65" width="53" height="66" as="geometry" />
        </mxCell>
        <mxCell id="aTD11fkSg5GpzUgMcPLQ-80" value="&lt;font style=&quot;&quot;&gt;&lt;font style=&quot;font-size: 18px;&quot;&gt;stores.csv&lt;br&gt;Info about stores which operate in our business &lt;br&gt;(store name and geo data)&lt;/font&gt;&lt;br&gt;&lt;/font&gt;" style="rounded=1;whiteSpace=wrap;html=1;strokeColor=#CCCCCC;" vertex="1" parent="1">
          <mxGeometry x="46.75" y="479.79" width="189.5" height="130.21" as="geometry" />
        </mxCell>
        <mxCell id="aTD11fkSg5GpzUgMcPLQ-91" style="edgeStyle=orthogonalEdgeStyle;rounded=0;orthogonalLoop=1;jettySize=auto;html=1;exitX=1;exitY=0.5;exitDx=0;exitDy=0;entryX=0.5;entryY=1;entryDx=0;entryDy=0;" edge="1" parent="1" source="aTD11fkSg5GpzUgMcPLQ-82" target="aTD11fkSg5GpzUgMcPLQ-14">
          <mxGeometry relative="1" as="geometry" />
        </mxCell>
        <mxCell id="aTD11fkSg5GpzUgMcPLQ-82" value="&lt;font style=&quot;&quot;&gt;&lt;font style=&quot;font-size: 18px;&quot;&gt;Loading data into staging area of DWH&lt;/font&gt;&lt;br&gt;&lt;/font&gt;" style="rounded=1;whiteSpace=wrap;html=1;strokeColor=#CCCCCC;" vertex="1" parent="1">
          <mxGeometry x="181.25" y="830" width="189.5" height="110.21" as="geometry" />
        </mxCell>
        <mxCell id="aTD11fkSg5GpzUgMcPLQ-83" value="&lt;span style=&quot;color: rgb(0, 76, 153); font-family: Helvetica; font-style: normal; font-variant-ligatures: normal; font-variant-caps: normal; letter-spacing: normal; orphans: 2; text-align: center; text-indent: 0px; text-transform: none; widows: 2; word-spacing: 0px; -webkit-text-stroke-width: 0px; background-color: rgb(251, 251, 251); text-decoration-thickness: initial; text-decoration-style: initial; text-decoration-color: initial; float: none; display: inline !important;&quot;&gt;&lt;font style=&quot;font-size: 18px;&quot;&gt;&lt;b&gt;Staging area&lt;/b&gt;&lt;/font&gt;&lt;/span&gt;" style="text;whiteSpace=wrap;html=1;" vertex="1" parent="1">
          <mxGeometry x="367.5" y="340" width="132.5" height="40" as="geometry" />
        </mxCell>
        <mxCell id="aTD11fkSg5GpzUgMcPLQ-84" value="&lt;font style=&quot;font-size: 18px;&quot;&gt;SA_stores.ext_stores&lt;/font&gt;" style="rounded=1;whiteSpace=wrap;html=1;strokeColor=#CCCCCC;" vertex="1" parent="1">
          <mxGeometry x="325.13" y="479.79" width="192.25" height="40" as="geometry" />
        </mxCell>
        <mxCell id="aTD11fkSg5GpzUgMcPLQ-85" value="&lt;font style=&quot;font-size: 18px;&quot;&gt;SA_stores.src_stores&lt;/font&gt;" style="rounded=1;whiteSpace=wrap;html=1;strokeColor=#CCCCCC;" vertex="1" parent="1">
          <mxGeometry x="325.13" y="561" width="192.25" height="40" as="geometry" />
        </mxCell>
        <mxCell id="aTD11fkSg5GpzUgMcPLQ-92" value="&lt;font style=&quot;font-size: 18px;&quot;&gt;ce_stores&lt;/font&gt;" style="rounded=1;whiteSpace=wrap;html=1;strokeColor=#CCCCCC;" vertex="1" parent="1">
          <mxGeometry x="815.75" y="660" width="150" height="39" as="geometry" />
        </mxCell>
        <mxCell id="aTD11fkSg5GpzUgMcPLQ-94" value="&lt;font style=&quot;font-size: 18px;&quot;&gt;DIM_stores&lt;/font&gt;" style="rounded=1;whiteSpace=wrap;html=1;strokeColor=#CCCCCC;" vertex="1" parent="1">
          <mxGeometry x="1026.25" y="551" width="150" height="39" as="geometry" />
        </mxCell>
        <mxCell id="aTD11fkSg5GpzUgMcPLQ-95" value="&lt;font style=&quot;font-size: 18px;&quot;&gt;ce_cities&lt;/font&gt;" style="rounded=1;whiteSpace=wrap;html=1;strokeColor=#CCCCCC;" vertex="1" parent="1">
          <mxGeometry x="813" y="511.99999999999994" width="150" height="39" as="geometry" />
        </mxCell>
        <mxCell id="aTD11fkSg5GpzUgMcPLQ-96" value="&lt;font style=&quot;font-size: 18px;&quot;&gt;ce_countries&lt;/font&gt;" style="rounded=1;whiteSpace=wrap;html=1;strokeColor=#CCCCCC;" vertex="1" parent="1">
          <mxGeometry x="813" y="450" width="150" height="39" as="geometry" />
        </mxCell>
        <mxCell id="aTD11fkSg5GpzUgMcPLQ-97" value="&lt;span style=&quot;color: rgb(0, 76, 153); font-family: Helvetica; font-style: normal; font-variant-ligatures: normal; font-variant-caps: normal; letter-spacing: normal; orphans: 2; text-indent: 0px; text-transform: none; widows: 2; word-spacing: 0px; -webkit-text-stroke-width: 0px; background-color: rgb(251, 251, 251); text-decoration-thickness: initial; text-decoration-style: initial; text-decoration-color: initial; float: none; display: inline !important;&quot;&gt;&lt;font style=&quot;font-size: 18px;&quot;&gt;&lt;b&gt;Cleansing area&lt;/b&gt;&lt;/font&gt;&lt;/span&gt;" style="text;whiteSpace=wrap;html=1;align=center;" vertex="1" parent="1">
          <mxGeometry x="590.5" y="340" width="128.75" height="35" as="geometry" />
        </mxCell>
        <mxCell id="aTD11fkSg5GpzUgMcPLQ-98" value="&lt;font style=&quot;font-size: 18px;&quot;&gt;&lt;b&gt;BL_CL&lt;/b&gt;&lt;/font&gt;" style="rounded=1;whiteSpace=wrap;html=1;strokeColor=#CCCCCC;fillColor=#E6E6E6;" vertex="1" parent="1">
          <mxGeometry x="594" y="390" width="134.5" height="50" as="geometry" />
        </mxCell>
        <mxCell id="aTD11fkSg5GpzUgMcPLQ-99" value="&lt;font style=&quot;font-size: 18px;&quot;&gt;lkp_countries&lt;/font&gt;" style="rounded=1;whiteSpace=wrap;html=1;strokeColor=#CCCCCC;" vertex="1" parent="1">
          <mxGeometry x="565.13" y="479.79" width="192.25" height="40" as="geometry" />
        </mxCell>
        <mxCell id="aTD11fkSg5GpzUgMcPLQ-100" value="&lt;font style=&quot;font-size: 18px;&quot;&gt;lkp_cities&lt;/font&gt;" style="rounded=1;whiteSpace=wrap;html=1;strokeColor=#CCCCCC;" vertex="1" parent="1">
          <mxGeometry x="565.13" y="561" width="192.25" height="40" as="geometry" />
        </mxCell>
        <mxCell id="aTD11fkSg5GpzUgMcPLQ-103" value="&lt;font style=&quot;&quot;&gt;&lt;font style=&quot;font-size: 18px;&quot;&gt;Performing deduplication on countries and cities data which can come from various sources with the same data meaning&lt;/font&gt;&lt;br&gt;&lt;/font&gt;" style="rounded=1;whiteSpace=wrap;html=1;strokeColor=#CCCCCC;" vertex="1" parent="1">
          <mxGeometry x="460" y="830" width="220" height="150" as="geometry" />
        </mxCell>
        <mxCell id="aTD11fkSg5GpzUgMcPLQ-106" value="&lt;font style=&quot;font-size: 18px;&quot;&gt;ce_addresses&lt;/font&gt;" style="rounded=1;whiteSpace=wrap;html=1;strokeColor=#CCCCCC;" vertex="1" parent="1">
          <mxGeometry x="815.75" y="585" width="150" height="39" as="geometry" />
        </mxCell>
        <mxCell id="aTD11fkSg5GpzUgMcPLQ-110" style="edgeStyle=orthogonalEdgeStyle;rounded=0;orthogonalLoop=1;jettySize=auto;html=1;exitX=1;exitY=0.5;exitDx=0;exitDy=0;entryX=0.5;entryY=0;entryDx=0;entryDy=0;" edge="1" parent="1" source="aTD11fkSg5GpzUgMcPLQ-108" target="aTD11fkSg5GpzUgMcPLQ-8">
          <mxGeometry relative="1" as="geometry" />
        </mxCell>
        <mxCell id="aTD11fkSg5GpzUgMcPLQ-108" value="&lt;font style=&quot;font-size: 18px;&quot;&gt;Loading part of the data to BL_3NF Layer, generation of surrogate keys&lt;/font&gt;" style="rounded=1;whiteSpace=wrap;html=1;strokeColor=#CCCCCC;" vertex="1" parent="1">
          <mxGeometry x="598.38" y="200" width="211.62" height="100" as="geometry" />
        </mxCell>
        <mxCell id="aTD11fkSg5GpzUgMcPLQ-111" value="&lt;span style=&quot;color: rgb(0, 76, 153); font-family: Helvetica; font-style: normal; font-variant-ligatures: normal; font-variant-caps: normal; letter-spacing: normal; orphans: 2; text-indent: 0px; text-transform: none; widows: 2; word-spacing: 0px; -webkit-text-stroke-width: 0px; background-color: rgb(251, 251, 251); text-decoration-thickness: initial; text-decoration-style: initial; text-decoration-color: initial; float: none; display: inline !important;&quot;&gt;&lt;font style=&quot;font-size: 18px;&quot;&gt;&lt;b&gt;Dimensional Layer&lt;/b&gt;&lt;/font&gt;&lt;/span&gt;" style="text;whiteSpace=wrap;html=1;align=center;" vertex="1" parent="1">
          <mxGeometry x="1041.75" y="338" width="118.25" height="32" as="geometry" />
        </mxCell>
        <mxCell id="aTD11fkSg5GpzUgMcPLQ-116" value="&lt;font style=&quot;font-size: 18px;&quot;&gt;&lt;b&gt;BL_3NF&lt;/b&gt;&lt;/font&gt;" style="rounded=1;whiteSpace=wrap;html=1;strokeColor=#CCCCCC;fillColor=#E6E6E6;" vertex="1" parent="1">
          <mxGeometry x="815.25" y="390" width="134.5" height="50" as="geometry" />
        </mxCell>
        <mxCell id="aTD11fkSg5GpzUgMcPLQ-117" value="&lt;font style=&quot;font-size: 18px;&quot;&gt;&lt;b&gt;BL_DM&lt;/b&gt;&lt;/font&gt;" style="rounded=1;whiteSpace=wrap;html=1;strokeColor=#CCCCCC;fillColor=#E6E6E6;" vertex="1" parent="1">
          <mxGeometry x="1034" y="400" width="134.5" height="50" as="geometry" />
        </mxCell>
        <mxCell id="aTD11fkSg5GpzUgMcPLQ-118" style="edgeStyle=orthogonalEdgeStyle;rounded=0;orthogonalLoop=1;jettySize=auto;html=1;exitX=0.5;exitY=1;exitDx=0;exitDy=0;" edge="1" parent="1" source="aTD11fkSg5GpzUgMcPLQ-97" target="aTD11fkSg5GpzUgMcPLQ-97">
          <mxGeometry relative="1" as="geometry" />
        </mxCell>
        <mxCell id="aTD11fkSg5GpzUgMcPLQ-120" style="edgeStyle=orthogonalEdgeStyle;rounded=0;orthogonalLoop=1;jettySize=auto;html=1;exitX=1;exitY=0.5;exitDx=0;exitDy=0;entryX=0.558;entryY=1.005;entryDx=0;entryDy=0;entryPerimeter=0;" edge="1" parent="1" source="aTD11fkSg5GpzUgMcPLQ-47" target="aTD11fkSg5GpzUgMcPLQ-8">
          <mxGeometry relative="1" as="geometry" />
        </mxCell>
        <mxCell id="aTD11fkSg5GpzUgMcPLQ-122" value="&lt;font style=&quot;font-size: 18px;&quot;&gt;Loading data to BL_DM Layer, generation of surrogate keys&lt;/font&gt;" style="rounded=1;whiteSpace=wrap;html=1;strokeColor=#CCCCCC;" vertex="1" parent="1">
          <mxGeometry x="1055.5" y="823.08" width="144.5" height="136.92" as="geometry" />
        </mxCell>
        <mxCell id="aTD11fkSg5GpzUgMcPLQ-124" style="edgeStyle=orthogonalEdgeStyle;rounded=0;orthogonalLoop=1;jettySize=auto;html=1;exitX=0.5;exitY=0;exitDx=0;exitDy=0;entryX=0.578;entryY=1.003;entryDx=0;entryDy=0;entryPerimeter=0;" edge="1" parent="1" source="aTD11fkSg5GpzUgMcPLQ-122" target="aTD11fkSg5GpzUgMcPLQ-51">
          <mxGeometry relative="1" as="geometry" />
        </mxCell>
        <mxCell id="aTD11fkSg5GpzUgMcPLQ-125" value="&lt;span style=&quot;color: rgb(0, 76, 153); font-family: Helvetica; font-style: normal; font-variant-ligatures: normal; font-variant-caps: normal; letter-spacing: normal; orphans: 2; text-align: center; text-indent: 0px; text-transform: none; widows: 2; word-spacing: 0px; -webkit-text-stroke-width: 0px; background-color: rgb(251, 251, 251); text-decoration-thickness: initial; text-decoration-style: initial; text-decoration-color: initial; float: none; display: inline !important;&quot;&gt;&lt;font style=&quot;font-size: 18px;&quot;&gt;&lt;b&gt;3rd normal form&lt;/b&gt;&lt;/font&gt;&lt;/span&gt;" style="text;whiteSpace=wrap;html=1;shadow=1;" vertex="1" parent="1">
          <mxGeometry x="813" y="338" width="150" height="32" as="geometry" />
        </mxCell>
        <mxCell id="aTD11fkSg5GpzUgMcPLQ-127" style="edgeStyle=orthogonalEdgeStyle;rounded=0;orthogonalLoop=1;jettySize=auto;html=1;exitX=1;exitY=0.5;exitDx=0;exitDy=0;entryX=0.632;entryY=0.998;entryDx=0;entryDy=0;entryPerimeter=0;" edge="1" parent="1" source="aTD11fkSg5GpzUgMcPLQ-103" target="aTD11fkSg5GpzUgMcPLQ-12">
          <mxGeometry relative="1" as="geometry">
            <Array as="points">
              <mxPoint x="689" y="905" />
            </Array>
          </mxGeometry>
        </mxCell>
      </root>
    </mxGraphModel>
  </diagram>
</mxfile>
